# AST/ASF file generated using VICON BodyLanguage
# -----------------------------------------------
:version 1.10
:name VICON
:units
  mass 1.0
  length 0.45
  angle deg
:documentation
   .ast/.asf automatically generated from VICON data using
   VICON BodyBuilder and BodyLanguage model FoxedUp or BRILLIANT.MOD
:root
   order TX TY TZ RX RY RZ
   axis XYZ
   position 0 0 0  
   orientation 0 0 0 
:bonedata
  begin
     id 1 
     name lhipjoint
     direction 0.756833 -0.6125 0.228138 
     length 2.53827 
     axis 0 0 0  XYZ
  end
  begin
     id 2 
     name lfemur
     direction 0.34202 -0.939693 0  
     length 6.51821  
     axis 0 0 20  XYZ
    dof rx ry rz
    limits (-160.0 20.0)
           (-70.0 70.0)
           (-60.0 70.0)
  end
  begin
     id 3 
     name ltibia
     direction 0.34202 -0.939693 0   
     length 6.99902   
     axis 0 0 20   XYZ
    dof rx
    limits (-10.0 170.0)
  end
  begin
     id 4 
     name lfoot
     direction 0.0951515 -0.261427 0.960522   
     length 1.92102   
     axis -90 7.62852e-016 20   XYZ
    dof rx rz
    limits (-45.0 90.0)
           (-70.0 20.0)
  end
  begin
     id 5 
     name ltoes
     direction 1.53539e-011 -4.21781e-011 1   
     length 0.964376   
     axis -90 7.62852e-016 20   XYZ
    dof rx
    limits (-90.0 20.0)
  end
  begin
     id 6 
     name rhipjoint
     direction -0.752153 -0.617542 0.230017   
     length 2.51754  
     axis 0 0 0  XYZ 
  end
  begin
     id 7 
     name rfemur
     direction -0.34202 -0.939693 0   
     length 6.82377   
     axis 0 0 -20   XYZ
    dof rx ry rz
    limits (-160.0 20.0)
           (-70.0 70.0)
           (-70.0 60.0)
  end
  begin
     id 8 
     name rtibia
     direction -0.34202 -0.939693 0   
     length 6.98689   
     axis 0 0 -20   XYZ
    dof rx
    limits (-10.0 170.0)
 end
 begin
     id 9 
     name rfoot
     direction -0.0900426 -0.24739 0.964723   
     length 2.03215  
     axis -90 -7.62852e-016 -20   XYZ
    dof rx rz
    limits (-45.0 90.0)
           (-20.0 70.0)
  end
  begin
     id 10 
     name rtoes
     direction -1.53466e-011 -4.22206e-011 1   
     length 1.0197   
     axis -90 -7.62852e-016 -20   XYZ
    dof rx
    limits (-90.0 20.0)
  end
  begin
     id 11 
     name lowerback
     direction 0.0184183 0.995705 -0.0907278   
     length 2.019   
     axis 0 0 0   XYZ
    dof rx ry rz
    limits (-20.0 45.0)
           (-30.0 30.0)
           (-30.0 30.0)
  end
  begin
     id 12 
     name upperback
     direction 0.00281055 0.998777 0.0493607   
     length 1.99623   
     axis 0 0 0   XYZ
    dof rx ry rz
    limits (-20.0 45.0)
           (-30.0 30.0)
           (-30.0 30.0)
  end
  begin
     id 13 
     name thorax
     direction -0.00665507 0.995706 0.092331   
     length 2.02811   
     axis 0 0 0   XYZ
    dof rx ry rz
    limits (-20.0 45.0)
           (-30.0 30.0)
           (-30.0 30.0)
  end
  begin
     id 14 
     name lowerneck
     direction -0.0960965 0.994358 0.0449225   
     length 1.71265   
     axis 0 0 0   XYZ
    dof rx ry rz
    limits (-20.0 45.0)
           (-30.0 30.0)
           (-30.0 30.0)
  end
  begin
     id 15 
     name upperneck
     direction 0.13642 0.985357 -0.102278   
     length 1.73016   
     axis 0 0 0   XYZ
    dof rx ry rz
    limits (-20.0 45.0)
           (-30.0 30.0)
           (-30.0 30.0)
  end
  begin
     id 16
     name head
     direction 0.0556079 0.997632 -0.040479  
     length 1.74275  
     axis 0 0 0   XYZ
    dof rx ry rz
    limits (-20.0 45.0)
           (-30.0 30.0)
           (-30.0 30.0)
  end
  begin
     id 17 
     name lclavicle
     direction 0.90877 0.417247 -0.00652364  
     length 3.25514  
     axis 0 0 0   XYZ
    dof ry rz
    limits (-20.0 10.0)
           (0.0 20.0)
  end
  begin
     id 18 
     name lhumerus
     direction 1 -4.48949e-011 8.31417e-028   
     length 4.84834   
     axis 180 -30 -90   XYZ
    dof rx ry rz
    limits (-60.0 90.0)
           (-90.0 90.0)
           (-90.0 90.0)
  end
  begin
     id 19
     name lradius
     direction 1 -4.48984e-011 3.45616e-027   
     length 2.99713   
     axis 180 -30 -90   XYZ
    dof rx
    limits (-10.0 170.0)
  end
  begin
     id 20
     name lwrist
     direction 1 -4.4891e-011 4.0479e-027   
     length 1.49857   
     axis -1.61768e-015 90 90   XYZ
    dof ry
    limits (-180.0 0.0)
 end
  begin
     id 21 
     name lhand
     direction 1 -4.49025e-011 8.0958e-027   
     length 0.693987   
     axis -5.16581e-015 90 90   XYZ
    dof rx rz
    limits (-90.0 90.0)
           (-45.0 45.0)
  end
  begin
     id 22 
     name lfingers
     direction 1 -4.4888e-011 1.61916e-026   
     length 0.55951   
     axis -1.03316e-014 90 90   XYZ
    dof rx
    limits (0.0 90.0)
  end
  begin
     id 23
     name lthumb
     direction 0.707107 -6.3493e-011 0.707107   
     length 0.803348   
     axis -90 45 2.85299e-015   XYZ
    dof rx rz
    limits (-45.0 45.0)
           (-45.0 45.0)
  end
  begin
     id 24 
     name rclavicle
     direction -0.906655 0.41906 0.0486307   
     length 3.3311  
     axis 0 0 0   XYZ 
    dof ry rz
    limits (-10.0 20.0)
           (-20.0 0.0)
  end
  begin
     id 25 
     name rhumerus
     direction -1 -4.48959e-011 6.37764e-018  
     length 4.93457   
     axis 180 30 90   XYZ
    dof rx ry rz
    limits (-90.0 60.0)
           (-90.0 90.0)
           (-90.0 90.0)
  end
  begin
     id 26 
     name rradius
     direction -1 -4.48957e-011 2.20847e-027   
     length 3.3443   
     axis 180 30 90   XYZ
    dof rx
    limits (-10.0 170.0)
  end
  begin
     id 27 
     name rwrist
     direction -1 -4.49008e-011 4.0479e-027   
     length 1.67215   
     axis -1.61768e-015 -90 -90   XYZ
    dof ry
    limits (-180.0 0.0)
  end
  begin
     id 28
     name rhand
     direction -1 -4.49013e-011 8.0958e-027   
     length 0.677363   
     axis -5.16581e-015 -90 -90   XYZ
    dof rx rz
    limits (-90.0 90.0)
           (-45.0 45.0)
  end
  begin
     id 29
     name rfingers
     direction -1 -4.48832e-011 1.61916e-026   
     length 0.546107   
     axis -1.03316e-014 -90 -90   XYZ
    dof rx
    limits (0.0 90.0)
  end
  begin
     id 30
     name rthumb
     direction -0.707107 -6.34895e-011 0.707107   
     length 0.784104   
     axis -90 -45 -2.85299e-015   XYZ
    dof rx rz
    limits (-45.0 45.0)
           (-45.0 45.0)
  end
:hierarchy
  begin
    root lhipjoint rhipjoint lowerback
    lhipjoint lfemur
    lfemur ltibia
    ltibia lfoot
    lfoot ltoes
    rhipjoint rfemur
    rfemur rtibia
    rtibia rfoot
    rfoot rtoes
    lowerback upperback
    upperback thorax
    thorax lowerneck lclavicle rclavicle
    lowerneck upperneck
    upperneck head
    lclavicle lhumerus
    lhumerus lradius
    lradius lwrist
    lwrist lhand lthumb
    lhand lfingers
    rclavicle rhumerus
    rhumerus rradius
    rradius rwrist
    rwrist rhand rthumb
    rhand rfingers
  end

#!OML:ASF H:\Terrain\Patient Classification 1\junglegym\FridayTest\junglegym.ASF
:FULLY-SPECIFIED
:DEGREES
79
root -3.32929 16.3089 -0.270135 92.7096 -83.143 -95.8464
lowerback 9.26648 -0.736514 4.65218
upperback -7.61405 -0.253027 1.44223
thorax -13.625 -0.533936 -0.952849
lowerneck 2.04863 1.34925 -12.9998
upperneck 31.1685 -1.65766 10.3078
head 9.57445 -1.96972 5.75703
rclavicle 1.79403e-014 -2.52457e-014
rhumerus 90.7652 -12.3499 -59.2909
rradius 30.3561
rwrist 9.18494
rhand 17.7279 17.0279
rfingers 7.12502
rthumb 42.4129 -7.42232
lclavicle 1.79403e-014 -2.52457e-014
lhumerus 88.5277 13.0248 56.3352
lradius 33.7002
lwrist -27.6962
lhand 3.85437 18.9367
lfingers 7.12502
lthumb 29.2767 46.6526
rfemur -21.8795 -5.61599 31.0342
rtibia 67.7082
rfoot -20.5 -18.2983
rtoes 20.5751
lfemur -12.8334 8.30207 -10.3718
ltibia 82.5587
lfoot -17.5717 15.0784
ltoes -32.9938
80
root -3.55346 16.1794 -0.267138 91.7245 -82.6874 -95.9882
lowerback 9.79599 -0.872145 5.11277
upperback -7.2524 -0.321016 1.48678
thorax -13.5447 -0.593054 -1.14962
lowerneck 1.79784 1.44389 -12.721
upperneck 31.2664 -1.49451 10.2635
head 9.63147 -1.86081 5.70661
rclavicle 8.84592e-015 -3.16068e-014
rhumerus 91.5967 -12.5685 -60.14
rradius 29.8995
rwrist 9.64444
rhand 18.0312 16.9908
rfingers 7.12502
rthumb 42.6968 -7.36139
lclavicle 8.84592e-015 -3.16068e-014
lhumerus 89.298 13.557 55.9982
lradius 33.3145
lwrist -27.818
lhand 3.90273 20.3866
lfingers 7.12502
lthumb 29.3228 48.0944
rfemur -22.1604 -6.00382 31.7864
rtibia 67.4143
rfoot -20.8792 -18.1237
rtoes 21.255
lfemur -13.7394 7.68059 -10.0266
ltibia 82.8073
lfoot -18.1256 15.2492
ltoes -31.3573
81
root -3.79627 16.0857 -0.258493 91.8816 -84.8987 -97.5667
lowerback 10.5566 -0.866904 2.83484
upperback -6.83796 -0.691933 0.876671
thorax -13.506 -0.571777 -0.466426
lowerneck 1.69049 1.49558 -12.6254
upperneck 31.3064 -1.43317 10.3244
head 9.65525 -1.8154 5.71834
rclavicle 9.24349e-015 -1.59028e-015
rhumerus 92.4867 -12.9859 -60.1982
rradius 29.3628
rwrist 9.13503
rhand 18.4943 16.8104
rfingers 7.12502
rthumb 43.1299 -7.38947
lclavicle 9.24349e-015 -1.59028e-015
lhumerus 90.7902 14.2003 57.3884
lradius 32.2471
lwrist -27.451
lhand 5.34707 17.4511
lfingers 7.12502
lthumb 30.701 44.9092
rfemur -22.2093 -6.58552 29.35
rtibia 67.46
rfoot -22.0154 -16.5692
rtoes 25.8327
lfemur -13.8698 6.59418 -12.9855
ltibia 82.2618
lfoot -19.0677 16.6421
ltoes -33.0928
82
root -4.03867 15.9933 -0.241106 95.9399 -87.3064 -103.098
lowerback 11.4287 -0.752551 0.407426
upperback -6.50858 -0.989845 0.219103
thorax -13.6294 -0.51571 0.246816
lowerneck 1.25287 1.41239 -12.4908
upperneck 31.9359 -1.50977 10.0469
head 9.98798 -1.88405 5.61359
rclavicle 6.16232e-015 -2.70347e-014
rhumerus 93.0408 -13.4357 -59.9931
rradius 28.9698
rwrist 8.67213
rhand 18.9977 17.0535
rfingers 7.12502
rthumb 43.6002 -6.97689
lclavicle 6.16232e-015 -2.70347e-014
lhumerus 91.0211 14.6729 56.3051
lradius 31.8804
lwrist -27.8808
lhand 4.6768 18.8312
lfingers 7.12502
lthumb 30.0617 46.4073
rfemur -22.3209 -7.12237 26.6626
rtibia 67.4812
rfoot -22.5776 -15.0164
rtoes 27.8837
lfemur -13.7819 5.66646 -16.1828
ltibia 81.4621
lfoot -19.585 13.8212
ltoes -22.1445
83
root -4.2779 15.8908 -0.233475 104.826 -87.8929 -113.197
lowerback 12.1128 -0.639016 -0.221142
upperback -6.29761 -0.974295 -0.0894714
thorax -13.802 -0.46355 0.263066
lowerneck 2.17274 1.44133 -12.4982
upperneck 31.4141 -1.60882 10.1948
head 9.63072 -1.93186 5.63359
rclavicle -2.08724e-015 2.78299e-015
rhumerus 93.3744 -13.9047 -60.1173
rradius 28.5833
rwrist 8.66783
rhand 19.2715 17.1983
rfingers 7.12502
rthumb 43.8558 -6.73812
lclavicle -2.08724e-015 2.78299e-015
lhumerus 92.2153 14.4967 57.2853
lradius 30.8048
lwrist -28.4302
lhand 5.0817 18.0503
lfingers 7.12502
lthumb 30.4479 45.5555
rfemur -22.5917 -7.2169 26.2727
rtibia 67.1319
rfoot -22.1715 -14.9457
rtoes 25.1442
lfemur -14.1607 5.21677 -17.1353
ltibia 80.849
lfoot -20.14 13.7429
ltoes -22.455
84
root -4.5228 15.7947 -0.223218 105.812 -87.6981 -115.408
lowerback 12.7662 -0.695692 0.0834299
upperback -6.07361 -1.00468 -0.241272
thorax -13.9534 -0.509795 -0.0637295
lowerneck 3.02694 1.63069 -12.1972
upperneck 31.212 -1.50195 10.2338
head 9.37894 -1.87676 5.58352
rclavicle 2.5842e-015 -1.63003e-014
rhumerus 94.0681 -14.1902 -60.5907
rradius 27.8029
rwrist 8.79353
rhand 19.4293 17.298
rfingers 7.12502
rthumb 44.0031 -6.58371
lclavicle 2.5842e-015 -1.63003e-014
lhumerus 92.9785 14.5911 57.1834
lradius 29.9276
lwrist -28.797
lhand 4.8776 17.7432
lfingers 7.12502
lthumb 30.2532 45.2843
rfemur -22.6682 -7.45679 26.7804
rtibia 66.508
rfoot -21.8637 -14.8088
rtoes 22.2957
lfemur -14.6233 4.8266 -17.0872
ltibia 80.3995
lfoot -20.6321 14.089
ltoes -24.8361
85
root -4.76882 15.7127 -0.215768 106.99 -87.7838 -117.592
lowerback 13.2082 -0.734674 -0.0184765
upperback -5.89658 -1.07024 -0.247443
thorax -14.0179 -0.527641 0.00720325
lowerneck 1.10082 1.37153 -11.3061
upperneck 33.4735 -1.64506 9.11686
head 10.6284 -1.99902 5.09343
rclavicle -6.06293e-015 9.93923e-015
rhumerus 94.5512 -14.5554 -60.2316
rradius 27.2752
rwrist 8.36689
rhand 19.3829 17.7152
rfingers 7.12502
rthumb 43.9598 -6.18264
lclavicle -6.06293e-015 9.93923e-015
lhumerus 93.6227 14.7291 57.1549
lradius 29.1487
lwrist -29.3934
lhand 4.24885 17.9794
lfingers 7.12502
lthumb 29.6533 45.6289
rfemur -23.0298 -7.50923 26.8551
rtibia 65.839
rfoot -22.2552 -13.0589
rtoes 25.5612
lfemur -15.3706 4.45286 -17.3687
ltibia 79.9963
lfoot -20.9347 13.9019
ltoes -25.7642
86
root -5.00848 15.6231 -0.220184 110.257 -87.3295 -121.325
lowerback 13.1852 -0.601017 0.172495
upperback -5.83711 -0.819781 -0.00546862
thorax -13.9315 -0.413366 0.104921
lowerneck 2.45239 1.46685 -11.6584
upperneck 32.4741 -1.57003 9.13524
head 9.98058 -2.00088 5.12213
rclavicle 3.57812e-015 -1.31198e-014
rhumerus 94.4941 -15.3297 -59.0741
rradius 27.3626
rwrist 7.48725
rhand 18.9956 18.2003
rfingers 7.12502
rthumb 43.5982 -5.8308
lclavicle 3.57812e-015 -1.31198e-014
lhumerus 94.4893 14.6533 57.7957
lradius 28.4961
lwrist -30.1085
lhand 4.03932 18.6069
lfingers 7.12502
lthumb 29.4532 46.2918
rfemur -24.0554 -6.72388 27.6026
rtibia 65.1726
rfoot -22.597 -10.9719
rtoes 32.0928
lfemur -16.8559 4.44755 -16.9945
ltibia 79.6758
lfoot -20.7948 13.7286
ltoes -28.6675
87
root -5.26719 15.5373 -0.206356 120.131 -87.6322 -132.1
lowerback 13.3876 -0.46496 -0.159185
upperback -5.64407 -0.712439 -0.154648
thorax -13.8275 -0.340188 0.0999614
lowerneck 2.36073 1.39347 -11.4293
upperneck 32.7843 -1.61047 8.73105
head 10.1252 -2.04737 4.93743
rclavicle 5.96354e-016 3.97569e-016
rhumerus 94.7594 -15.803 -58.7303
rradius 27.1488
rwrist 7.14262
rhand 18.3781 18.6967
rfingers 7.12502
rthumb 43.0212 -5.54177
lclavicle 5.96354e-016 3.97569e-016
lhumerus 94.8203 14.9435 57.5773
lradius 28.4168
lwrist -30.0633
lhand 4.46689 19.1563
lfingers 7.12502
lthumb 29.8614 46.7686
rfemur -24.5223 -6.54871 27.3438
rtibia 64.5006
rfoot -22.2941 -10.3913
rtoes 32.0842
lfemur -17.4617 4.27066 -17.7626
ltibia 78.976
lfoot -20.4883 13.938
ltoes -25.4942
88
root -5.53657 15.4634 -0.182872 164.518 -88.6422 -177.708
lowerback 13.8256 -0.362751 -1.59488
upperback -5.38017 -0.928283 -0.748896
thorax -13.7788 -0.346713 0.308198
lowerneck 2.49664 1.5705 -11.5924
upperneck 32.8869 -1.53587 9.25521
head 10.123 -1.99908 5.17
rclavicle -3.47873e-015 -1.19271e-014
rhumerus 95.36 -15.8842 -59.3333
rradius 26.5254
rwrist 7.51007
rhand 17.5596 19.3225
rfingers 7.12502
rthumb 42.2553 -5.18141
lclavicle -3.47873e-015 -1.19271e-014
lhumerus 95.1061 15.3313 57.2551
lradius 28.2817
lwrist -30.0166
lhand 4.96867 18.4823
lfingers 7.12502
lthumb 30.3401 46.0075
rfemur -24.7306 -7.23398 25.7248
rtibia 63.8134
rfoot -21.1931 -11.2885
rtoes 23.5609
lfemur -17.4418 3.81822 -20.0837
ltibia 77.946
lfoot -20.3092 14.6106
ltoes -30.3033
